<?xml version='1.0' encoding='utf-8'?>
<svg xmlns="http://www.w3.org/2000/svg" viewBox="0 0 3014 3014"> <path transform="scale(2.9441)" d="m-0-0h1024v1024h-1024v-1024z" fill="#1AE0D8"/> <path transform="scale(2.9441)" d="m511.96 50.08c4.489 7.4884 8.202 15.709 12.082 23.532l27.614 57.726 18.815 38.456c1.939 4.107 4.642 8.513 5.973 12.799l0.286 0.968c1.935 1.308 6.189 1.446 8.547 1.89l17.103 3.616c21.118 4.87 42.333 10.782 62.484 18.818-0.7-23.999-4.034-47.202-11.894-69.997 10.704 5.087 20.278 11.225 30.11 17.795 20.902 13.965 41.907 30.748 57.035 51.011 8.812 11.803 15.654 25.238 21.04 38.921 2.295 5.83 4.474 11.811 6.033 17.884l2.773 12.45c0.151 0.817 0.383 3.887 0.726 4.363 0.341 0.475 1.92 1.37 2.464 1.758l7.097 5.127c17.589 13.002 34.274 28.867 49.596 44.428 8.592 8.727 17.081 17.63 24.58 27.33 0.677 0.875 2.774 3.023 3.051 3.998 0.566 1.988 0.108 5.8 0.129 7.944l-0.17 34.26 79.288-3.874 20.188-0.824c3.53-0.165 7.46-0.718 10.961-0.361l-25.629 30.756-32.475 38.279-32.112 37.774c-3.973 4.756-10.094 10.736-12.655 16.364-0.806 1.771-0.99 4.153-1.337 6.066l-2.07 9.684-9.095 35.229c-12.352 41.535-31.011 79.926-53.213 117.04l28.687 127.14-88.985-69.192c-46.585 46.336-94.648 90.073-149.32 126.85l-46.394 29.525c-10.192 6.001-21.087 11.425-30.929 17.93l-8.472-4.575-54.24-31.869c-22.32-14.445-43.609-30.302-64.433-46.8l-24.532-19.963c-27.129-23.754-52.095-49.523-77.229-75.319l-83.852 71.002 27.175-128.2c-26.799-38.459-45.817-80.195-58.858-125.16l-7.357-30.027c-0.728-3.492-0.551-8.767-1.975-11.821-1.704-3.657-5.7-7.626-8.312-10.749l-23.919-27.648-20.822-25.251-48.728-57.206 108.82 5.071c0.731-12.46 0.362-24.833 1.549-37.306 0.139-1.465 0.04-4.31 0.537-5.537 0.644-1.589 3.594-4.183 4.87-5.664 18.139-21.041 39.466-40.305 61.288-57.475l14.286-11.12c1.659-1.222 6.032-3.417 7.085-4.852 0.744-1.013 1.021-6.139 1.289-7.577 1.271-6.799 3.119-13.534 5.146-20.141 10.828-35.287 36.59-68.139 65.309-90.927 14.881-11.808 31.289-21.582 48.045-30.461-10.84 25.317-15.362 50.18-17.544 77.477 27.874-11.452 56.791-21.09 86.487-26.529l67.998-134.84z" fill="#FEFEFE"/> <path transform="scale(2.9441)" d="m511.84 92.796 47.188 114.35c6.985 1.731 14.722 2.152 21.873 3.463 13.441 2.463 27.087 5.909 40.238 9.627 12.18 3.444 24.319 7.476 36.093 12.111 7.166 2.82 14.147 6.3 21.477 8.657 0.969-6.481 0.887-13.057 0.855-19.596-0.097-19.388-2.738-38.889-7.091-57.771 14.593 10.446 29.215 21.587 41.534 34.721 17.782 18.96 30.38 42.124 35.011 67.77 1.07 5.925 1.598 12.04 1.9 18.052l0.201 11.314c5e-3 0.948-0.25 3.176 0.019 3.996 0.104 0.318 4.546 3.164 5.078 3.534l12.734 9.313c15.382 11.793 30.221 24.903 43.802 38.721l16.019 16.83c0.773 0.859 2.947 2.751 3.243 3.665 0.672 2.077-0.098 7.568-0.128 9.931l-0.341 35.4 103.02 0.116-84.99 101.36-11.823 0.667c-0.283 3.396-1.334 6.815-2.111 10.137l-3.577 15.341c-11.522 46.321-29.5 91.63-55.581 131.73l24.028 100.21-66.135-66.333-30.795 35.915-29.896 28.959c-35.105 32.587-73.233 62.075-113.21 88.451l-43.881 27.053-4.279 2.201c-2.116-0.26-4.969-2.48-6.866-3.565l-19.791-11.653c-59.421-36-115.09-80.672-163.5-130.53l-30.733-33.76-66.178 60.791 17.817-81.178 2.877-12.116c0.243-0.911 1.149-3.138 1.099-3.984-0.052-0.88-1.756-3.186-2.281-4.082l-7.474-12.899c-9.011-15.919-16.941-32.185-23.974-49.072-12.579-30.205-20.262-61.353-26.782-93.306l-13.381 0.191-84.128-101.36 104.51 0.977 0.113-38.664c0.028-2.367-0.508-8.054 0.276-10.016 0.994-2.488 5.758-6.115 7.788-8.04 17.577-16.67 35.943-31.815 55.142-46.572l11.397-8.475c0.736-0.533 2.977-1.805 3.363-2.426 0.391-0.628-0.058-6.466-0.016-7.603 0.309-8.217 1.129-16.525 2.74-24.592 1.765-8.837 3.935-17.561 7.292-25.939 13.03-32.517 39.273-61.225 68.258-80.62-1.863 8.099-3.93 16.085-5.209 24.312-2.868 18.46-2.395 37.069 2.25 55.195l26.261-12.055c29.487-11.896 59.535-19.344 90.864-24.311l47.784-114.53z"/> <path transform="scale(2.9441)" d="m684.87 459.45 0.522 0.198 0.058 6.3-14.921 0.133c0.092-0.884 0.207-1.524 0.579-2.333 3.666-0.611 8.692-0.958 12.287-0.068l0.763 1.281 0.594-0.065 0.118-5.446z" fill="#020C0D"/> <path transform="scale(2.9441)" d="m684.61 496.53c-4.094 1.346-10.32 0.533-14.689 0.531l0.455-7.088c2.424 0.021 5.08-0.176 7.443 0.377l-0.46 0.739c-1.282 1.976-3.761 3.662-5.548 5.21l12.799 0.231z" fill="#02595B"/> <path transform="scale(2.9441)" d="m600.71 663.31 7.54-15.884 0.348 0.57c-1.416 3.358-3.4 7.379-3.936 10.965-0.351 2.347 0.029 5.16 0.131 7.537 0.207 4.806 0.445 9.76 0.138 14.567-0.749-3.898-0.525-8.337-0.674-12.319-0.745-0.231-0.35-0.235-1.175 0.16-0.398-0.662-0.158-2.177-0.537-3.069-0.504-1.189-0.101 0.072-0.57-1.544l-0.22-0.797-0.254 0.051-0.791-0.237z" fill="#7490AE"/> <path transform="scale(2.9441)" d="m514.75 530.46 0.888-0.434 0.139 1.801c1.237 1.173 3.353 1.863 4.908 2.597l2.114-2.106c1.187-1.187 2.031-1.298 3.597-1.689l-8.813 7.688c-1.626 1.493-3.29 3.529-5.136 4.668-0.767-2.95 1.596-9.356 2.303-12.525z" fill="#008F83"/> <path transform="scale(2.9441)" d="m685.49 490.45 0.089 5.999-0.966 0.079-12.799-0.231c1.787-1.548 4.266-3.234 5.548-5.21l0.46-0.739 7.668 0.102z" fill="#009B8C"/> <path transform="scale(2.9441)" d="m384.38 688.35c1.978 2.474 4.122 4.279 6.607 6.223-2.638 2.054-4.399 4.231-6.341 6.932-2.115-2.453-3.735-4.634-6.458-6.469l-0.578-0.377c2.388-1.721 4.33-3.392 6.227-5.655l0.543-0.654z" fill="#FEFEFE"/> <path transform="scale(2.9441)" d="m685.45 465.95-4e-3 5.586c-2.909 0.263-12.76 0.914-14.803-0.536l-0.114-4.917 14.921-0.133z" fill="#009B8C"/> <path transform="scale(2.9441)" d="m273.29 390.75c0.913-0.258 2-0.471 2.956-0.367 1.46 0.159 2.92 1.183 3.781 2.367 0.78 1.072 1.014 2.139 0.834 3.439-0.273 1.965-1.615 2.934-3.115 4.002-0.71 0.257-1.727 0.502-2.5 0.422-1.573-0.163-2.836-1.148-3.777-2.364-0.799-1.032-1.176-2.193-0.97-3.499 0.298-1.892 1.341-2.881 2.791-4z" fill="#FEFEFE"/> <path transform="scale(2.9441)" d="m384.59 402.65 10.205 6.19-14.176 9.579 3.971-15.769z" fill="#008F83"/> <path transform="scale(2.9441)" d="m636.76 687.44 1.847 2.536c1.518 2.08 2.848 3.534 4.9 5.055l0.596 0.431c-2.717 1.835-4.989 3.393-6.598 6.359l-0.253 0.483-0.672 0.327c-1.869-3.588-3.998-4.955-7.31-7.108 3.485-2.371 5.242-4.568 7.49-8.083z" fill="#FEFEFE"/> <defs> <linearGradient id="l" x1="671.36" x2="684.17" y1="454.05" y2="457.33" gradientUnits="userSpaceOnUse"> <stop stop-color="#007C72" offset="0"/> <stop stop-color="#009580" offset="1"/> </linearGradient> </defs> <path transform="scale(2.9441)" d="m685.42 452.52-0.032 7.13-0.522-0.198c-1.402-0.529-3.11-0.293-4.601-0.29l-9.491 0.028-0.167-6.594 14.813-0.076z" fill="url(#l)"/> <path transform="scale(2.9441)" d="m685.42 477.46-6e-3 7.103-14.613-0.034-0.159-7.024 14.778-0.045z" fill="#008F83"/> <path transform="scale(2.9441)" d="m685.55 434.42-15.115-4e-3 0.032-6.362c5.544-4e-3 12.443-0.73 17.774 0.698 1.371 1.629 1.186 2.289 1.361 4.363-0.335-0.967-0.617-1.963-1.106-2.863l-2.25 0.897c-0.147 1.124-0.23 2.224-0.696 3.271z" fill="#009B8C"/> <path transform="scale(2.9441)" d="m342.49 441-0.144-9.231 11.23-3.986c-0.197 2.159-0.15 4.941-1.521 6.721l0.251 0.458c0.662 1.702 0.181 5.672-0.316 7.437-3.278-0.076-6.296-0.783-9.5-1.399z" fill="#01736E"/> <path transform="scale(2.9441)" d="m399.83 426.22c-0.646 2.524-3.689 4.549-5.317 6.684-4.038 5.294-6.542 11.483-7.669 18.029-0.707 4.112-0.936 9.318-0.13 13.443 0.494 2.531 2.849 6.763 2.51 9.191l-0.327-0.528c-4.481-7.456-6.929-19.09-4.698-27.564l0.261-0.972 1.398-4.588c2.529-6.351 7.756-11.071 13.972-13.695z" fill="#FEFEFE"/> <path transform="scale(2.9441)" d="m670.42 440.92c1.59-0.625 3.33-0.394 5.025-0.399l10.037-0.01-0.101 6.057 0.04 5.954-14.813 0.076c-0.12-2.253 0.432-4.388-0.751-6.346-0.06-1.756-0.388-3.791 0.563-5.332z" fill="#020C0D"/> <path transform="scale(2.9441)" d="m670.42 440.92c1.59-0.625 3.33-0.394 5.025-0.399l10.037-0.01-0.101 6.057-11.482-0.064c-0.93-3e-3 -2.643 0.278-3.351-0.319l-0.128-5.265z" fill="#009B8C"/> <path transform="scale(2.9441)" d="m756.19 382.96 12.099 8.695 0.717 0.409c-0.487 1.275-2.185 2.714-3.097 3.798-1.439 1.709-2.724 3.569-4.023 5.387l-1.138 1.111-11.262-8.88 6.704-10.52z" fill="#01FEFB"/> <path transform="scale(2.9441)" d="m590.77 671.36 6.438-9.183c-2.76 8.409-7.864 16.558-12.047 24.351l-22.998 42.121-9.149 16.854c-0.577 1.04-1.757 3.879-2.625 4.574-0.284-2.538 4.15-9.465 5.392-12.027l34.989-66.69z" fill="#73C4E2"/> <path transform="scale(2.9441)" d="m394.86 396.51-21.506-11.55 3.081-9.219 20.749 12.89c-0.594 2.646-1.124 5.436-2.324 7.879z" fill="#7490AE"/> <path transform="scale(2.9441)" d="m603.08 668.91c0.825-0.395 0.43-0.391 1.175-0.16 0.149 3.982-0.075 8.421 0.674 12.319l-0.153 50.193c-0.061 4.115 0.655 10.029-0.438 13.819-0.192 0.667-0.711 1.209-1.18 1.695l-1.464 1.383c-0.846-3.348-0.567-7.204-0.558-10.659l0.177-18.62 0.409-36.847c0.211-4.226 1.089-8.339 1.329-12.552l0.029-0.571z" fill="#B3D3DC"/> <path transform="scale(2.9441)" d="m569.63 535.18c1.648-1.458 2.148-1.422 4.366-1.283l10.61 1.254c3.668 0.443 7.439 0.239 11.14 0.634l1.081-0.033 3.759 0.142c1.972-0.123 2.565-0.321 4.342 0.642l0.479 1.011-16.615 13.815-19.162-16.182z" fill="#01FEFB"/> <defs> <linearGradient id="k" x1="667.03" x2="691.87" y1="470.71" y2="468.3" gradientUnits="userSpaceOnUse"> <stop stop-color="#00B9AE" offset="0"/> <stop stop-color="#00E2D3" offset="1"/> </linearGradient> </defs> <path transform="scale(2.9441)" d="m685.55 434.42c0.466-1.047 0.549-2.147 0.696-3.271l2.25-0.897c0.489 0.9 0.771 1.896 1.106 2.863l0.382 53.429c5e-3 5.806 0.85 13.07-0.094 18.708-0.126 0.753-0.471 1.613-1.023 2.161-0.257 0.255-0.965 0.919-1.371 1.076-0.828 0.319-3.377 8e-3 -4.339 7e-3l-12.911-0.108c-1.044-1.358-0.623-3.1-0.578-4.788 1.986-1.414 12.823-0.664 15.795-0.682l0.108-6.469-0.089-5.999-0.073-5.887 6e-3 -7.103 0.025-5.922 4e-3 -5.586-0.058-6.3 0.032-7.13-0.04-5.954 0.101-6.057 0.071-6.091z" fill="url(#k)"/> <path transform="scale(2.9441)" d="m317.8 298.05c2.117 4.215 3.217 9.138 5.264 13.491 7.721 16.419 19.636 27.661 33.647 38.717l-2.655 6.81-1.009 2.461-0.594 0.118c-16.213-12.857-28.121-27.869-32.666-48.371-0.965-4.354-1.233-8.827-1.987-13.226z" fill="#02595B"/> <path transform="scale(2.9441)" d="m380.62 418.42c-4.278 5.335-11.666 8.964-17.133 13.137-0.118-12.703 2.503-23.963 6.383-35.946l14.721 7.04-3.971 15.769z" fill="#01FEFB"/> <defs> <linearGradient id="h" x1="437.47" x2="460.53" y1="708.03" y2="702.97" gradientUnits="userSpaceOnUse"> <stop stop-color="#00ABB0" offset="0"/> <stop stop-color="#00C8BA" offset="1"/> </linearGradient> </defs> <path transform="scale(2.9441)" d="m421.25 652.08c4.862 5.039 9.17 11.665 12.867 17.605l45.112 95.331-0.462 0.958-30.513-57.022-17.339-37.371c-2.364-4.915-4.545-10.223-7.494-14.796l-0.616 0.275-1.555-4.98z" fill="url(#h)"/> <path transform="scale(2.9441)" d="m342.49 441c3.204 0.616 6.222 1.323 9.5 1.399l0.019 50.999-9.117-4.846-0.443-0.195 0.041-47.357z" fill="#02595B"/> <path transform="scale(2.9441)" d="m354.64 415.75c0.949-0.274 0.881-0.443 1.833 0-0.041 0.502-0.047 0.913-0.226 1.403-0.19 0.521-0.571 1.081-1 1.43-1.362 1.109-3.857 1.84-5.489 2.554l-13.739 5.981 0.015 65.465c5.703 2.476 12.348 5.308 17.284 9.077 0.066 1.379 0.428 2.647-0.321 3.833l-1.62-0.743-19.833-9.698 0.193-70.339 22.903-8.963z" fill="#01FEFB"/> <path transform="scale(2.9441)" d="m657.18 395.68 2.565 15.862c0.388 2.621 0.456 6.165 1.64 8.516 0.597 3.667-0.758 9.153-0.981 13.048-3.349-3.647-7.343-6.648-11.171-9.772l-15.894-12.711c4-2.722 8.06-5.407 12.273-7.791 3.752-2.122 7.743-3.979 11.081-6.735l0.487-0.417z" fill="#5A7592"/> <path transform="scale(2.9441)" d="m256.79 474.44 43.163 1.047-0.066 7.329-30.161 0.216 2.539 4.097 12.48 18.971-7.722-0.121-20.233-31.539z" fill="#01FEFB"/> <path transform="scale(2.9441)" d="m775.92 549.81 7.566-29.94c2.128-1.432 19.39-0.696 23.108-0.672l-2.798 14.309-10.026 6.83-11.22 6.206c-2.013 1.118-4.395 2.711-6.63 3.267z" fill="#008F83"/> <path transform="scale(2.9441)" d="m423.83 749.02c-0.887-0.952-2.894-2.579-3.417-3.666-1.189-2.472-1.095-8.03-1.315-10.804-1.573-19.87-1.435-39.978-1.579-59.897-0.066-9.122 0.158-18.334-0.482-27.435l4.215 4.859 1.555 4.98 0.608 2.847 0.463 56.834 0.343 20.905c0.048 3.493 0.463 8.017-0.391 11.377z" fill="#FEFEFE"/> <path transform="scale(2.9441)" d="m407.63 526.64c0.458-0.229 0.868-0.604 1.373-0.689 1.744-0.294 4.948 1.098 6.75 1.548 3.085 0.77 6.212 1.239 9.357 1.676 5.802 0.807 11.716 0.789 17.56 0.655l13.374-0.406c1.045-0.035 3.63-0.43 4.56-0.121 0.497 0.165 0.857 0.603 1.286 0.905l-25.651 21.292-28.609-24.86z" fill="#01FEFB"/> <path transform="scale(2.9441)" d="m735.21 483.45-1.864-9.93 33.566-0.407-20.909 30.765c-1.973 0.155-5.118 0.238-6.988-0.335-1.059-2.237-1.216-5.011-1.606-7.44l-2.199-12.653z" fill="#01FEFB"/> <path transform="scale(2.9441)" d="m735.21 483.45 16.693 0.034-9.523 13.817c-1.212 1.831-3.18 4.053-3.365 6.242-1.059-2.237-1.216-5.011-1.606-7.44l-2.199-12.653z" fill="#01736E"/> <path transform="scale(2.9441)" d="m431.68 443.6c2.272-0.235 5.317-0.457 7.511 0.281 4.11 1.383 7.581 4.241 9.285 8.272 1.366 3.234 1.724 7.824 0.384 11.099-1.958 4.784-5.339 6.833-9.908 8.613-3.14 0.384-6.226 0.446-9.209-0.748-3.202-1.282-6.331-4.121-7.629-7.331-1.6-3.96-1.482-8.368 0.21-12.293 1.834-4.256 5.261-6.282 9.356-7.893z" fill="#FEFEFE"/> <path transform="scale(2.9441)" d="m589.39 442.6c1.543 0.049 3.123 0.365 4.606 0.786 3.863 1.096 6.993 3.876 8.881 7.376 1.498 2.778 2.312 7.114 1.342 10.23l-0.177 0.512c-0.372 1.13-0.763 2.16-1.395 3.179-2.784 4.486-6 6.597-11.061 7.856-3.279 0.052-6.172-0.19-9.05-1.978-3.48-2.163-6.163-5.66-6.947-9.729-0.734-3.806-0.039-7.87 2.141-11.078 2.986-4.393 6.616-6.122 11.66-7.154z" fill="#FEFEFE"/> <path transform="scale(2.9441)" d="m367.91 526.76c1.484 1.938 2.248 4.433 3.153 6.686l11.225 30.618c2.701 6.877 5.337 14.032 9.143 20.392 3.3 5.515 8.151 10.075 12.541 14.722l19.017 19.77 39.841 41.05c1.503 1.541 4.195 3.573 4.036 5.909l-57.803-53.672-18.26-17.384c-1.761-1.733-4.635-3.913-5.748-6.03-1.589-3.023-2.381-6.916-3.566-10.151-6.249-17.069-11.152-33.88-13.579-51.91z" fill="#FEFEFE"/> <defs> <linearGradient id="g" x1="311.6" x2="344.71" y1="347.33" y2="312.77" gradientUnits="userSpaceOnUse"> <stop stop-color="#004E54" offset="0"/> <stop stop-color="#11BBBE" offset="1"/> </linearGradient> </defs> <path transform="scale(2.9441)" d="m310.94 279.36 0.615 17.453c2.391 17.827 7.121 33.239 17.631 48.004 4.683 6.578 10.545 12.624 16.665 17.873 0.516 0.442 4.832 3.973 4.841 4.071 0.086 0.971-0.753 3.253-0.979 4.301l-1.852 9.758c-22.341-16.239-33.611-37.848-37.883-64.807-0.571-3.604-1.818-8.774-1.47-12.342-1.364-6.779-2.118-14.888-1.975-21.799 0.879 3.034 0.955 6.08 1.702 9.126l1.52-0.5c0.729-1.097 0.497-1.965 0.5-3.25l-0.5-0.75c1.007-1.441 0.881-5.243 1.185-7.138z" fill="url(#g)"/> <path transform="scale(2.9441)" d="m793.77 540.33 10.026-6.83c-8.888 35.597-19.751 71.2-37.883 103.33l-3.274-14.896 0.722-1.075c4.368-5.891 7.327-13.531 10.29-20.243 6.725-15.239 13.221-31.649 17.598-47.735 1.122-4.123 1.638-8.37 2.521-12.547z" fill="#01FEFB"/> <path transform="scale(2.9441)" d="m250.44 464.08c-2.563-2.547-4.665-6.436-6.794-9.413l-17.541-24.983 73.915 0.27-0.21 10.591-61.118 0.464 15.722 22.239-0.415 0.665-3.559 0.167z" fill="#01FEFB"/> <path transform="scale(2.9441)" d="m728.42 440.08-1.522-11.479 70.24 0.44-23.956 33.591-6.088-0.058 16.074-22.328-54.748-0.166z" fill="#01FEFB"/> <path transform="scale(2.9441)" d="m649.3 537.86c1.387-3.513 4.605-12.097 7.907-13.675l-5.488 25.968c-2.512 11.813-4.377 24.036-10.336 34.783-1.015 1.831-2.524 3.97-3.879 5.559-4.777 5.602-10.663 10.703-16.064 15.712l-24.797 22.932-28.845 26.73c-4.673 4.225-9.426 8.913-14.544 12.58l-0.5-0.281 1.189-2.89 1.148-0.595c1.62-1.075 3.091-2.909 4.459-4.293l8.345-8.438 49.174-49.981 10.171-10.391c1.88-1.911 4.263-3.943 5.604-6.281 1.632-2.848 2.767-6.431 4.01-9.488 4.969-12.223 9.215-25.168 12.446-37.951z" fill="#FEFEFE"/> <path transform="scale(2.9441)" d="m657.18 395.68-0.117-0.586c-1.196-6.237-1.592-12.433-3.073-18.675-5.476-23.089-18.392-45.476-34.164-63.033 2.381 0.207 6.027 0.112 8.197 1.031 0.572 0.242 1.676 1.54 2.156 1.989 3.575 3.344 6.825 6.952 9.969 10.701 7.892 9.414 14.24 19.875 20.096 30.643 1.599 2.941 4.024 6.459 4.594 9.758 0.589 3.408 0.2 7.558 0.076 11.038l-1.645 24.672-1.884 16.84c-1.184-2.351-1.252-5.895-1.64-8.516l-2.565-15.862z" fill="#FEFEFE"/> <path transform="scale(2.9441)" d="m728.42 440.08 54.748 0.166-16.074 22.328-34.719 0.291c-1.008-1.68-1.021-5.593-1.318-7.61l-2.637-15.175z" fill="#01736E"/> <path transform="scale(2.9441)" d="m775.92 549.81c2.235-0.556 4.617-2.149 6.63-3.267l11.22-6.206c-0.883 4.177-1.399 8.424-2.521 12.547-4.377 16.086-10.873 32.496-17.598 47.735-2.963 6.712-5.922 14.352-10.29 20.243l-0.722 1.075-3.303-13.689c-0.241-0.995-1.008-2.913-0.922-3.803 0.145-1.489 1.305-3.643 1.87-5.065l4.481-11.942c4.164-12.264 8.232-25.011 11.155-37.628z" fill="#1AE0D8"/> <path transform="scale(2.9441)" d="m466.53 270.06-10.223 3.66c5.138-21.308 13.871-42.457 21.676-62.945l34.317-84.745 1.683 5.428-0.177 6.538c-1.071 5.143-3.672 10.094-5.774 14.877l-7.958 19.315-12.282 35.562-15.314 44.497-5.948 17.813z" fill="#FEFEFE"/> <defs> <linearGradient id="f" x1="219.71" x2="281.39" y1="539.3" y2="582.9" gradientUnits="userSpaceOnUse"> <stop stop-color="#008D80" offset="0"/> <stop stop-color="#00A79A" offset="1"/> </linearGradient> </defs> <path transform="scale(2.9441)" d="m232.33 519.03 15.463 0.414c2.944 16.551 7.629 33.22 12.931 49.165 2.188 6.576 5.179 13.08 7.02 19.738 0.411 1.488 0.25 2.448 0.014 3.938l-3.364 19.136-0.359-0.722c-10.183-17.837-16.859-37.482-22.957-57.021l-6.266-22.552c-1.116-4.107-2.263-7.818-2.482-12.096z" fill="url(#f)"/> <path transform="scale(2.9441)" d="m250.44 464.08 3.559-0.167 0.415-0.665-15.722-22.239 61.118-0.464-0.057 0.623-0.246 23.924-34.797-0.622-9.961-0.051c-1.414 0-3.029 0.278-4.309-0.339z" fill="#01736E"/> <path transform="scale(2.9441)" d="m370.32 327.71-11.102 18.043-11.737-10.193c-5.518-5.188-10.425-11.109-14.436-17.536-10.691-17.13-13.513-33.902-13.899-53.726-0.135-6.937-0.226-14.599 1.356-21.378l0.416 0.759c1.167 2.288 0.944 6.146 1.249 8.718 0.433 3.652 1.112 7.23 1.917 10.817 5.207 23.203 18.158 41.696 36.356 56.695 3.216 2.652 6.389 5.531 9.88 7.801z" fill="#009B8C"/> <path transform="scale(2.9441)" d="m720.36 511.42 0.886-1.556 44.32 189.61c-0.83 0.369-1.592 0.584-2.479 0.777-1.447-1.873-2.155-4.984-2.951-7.225l-6.737-21.516-25.914-96.009-11.102-49.648 3.977-14.434z" fill="#1AE0D8"/> <path transform="scale(2.9441)" d="m658.75 333.8c16.406-13.079 29.868-30.789 37.734-50.243 5.405-13.369 8.357-27.296 10.367-41.528 2.412 11.943 1.944 24.148 0.836 36.22-1.604 17.488-3.887 33.731-13.753 48.695-6.68 10.132-15.244 18.373-24.666 25.911l-10.518-19.055z" fill="#01736E"/> <defs> <linearGradient id="e" x1="260.27" x2="218.27" y1="532.79" y2="620.45" gradientUnits="userSpaceOnUse"> <stop stop-color="#0EC7BF" offset="0"/> <stop stop-color="aqua" offset="1"/> </linearGradient> </defs> <path transform="scale(2.9441)" d="m227.11 555.55c-1.782-4.587-2.744-9.904-3.754-14.713l-4.132-22.328 13.102 0.522c0.219 4.278 1.366 7.989 2.482 12.096l6.266 22.552c6.098 19.539 12.774 39.184 22.957 57.021l0.359 0.722-7.288 28.628c-8.94-20.567-17.208-40.958-23.794-62.436-2.228-7.265-4.598-14.632-6.198-22.064z" fill="url(#e)"/> <path transform="scale(2.9441)" d="m448.31 239.14c1.026-0.177 1.272-0.252 2.286 0.111-1.479 6.769-3.941 14.277-6.616 20.643-18.356 3.987-36.441 8.529-54.074 15.102-9.161 3.415-17.955 8.085-27.156 11.232l-1.71-2.613-5.856-13.466c29.62-15.491 60.459-24.517 93.126-31.009z" fill="#01FEFB"/> <path transform="scale(2.9441)" d="m572.61 238.79c25.419 5.262 49.895 11.157 74.258 20.387 7.894 2.991 15.821 5.946 23.365 9.755-0.226 3.862-2.94 8.687-4.469 12.19l-2.555 5.32c-17.816-7.842-35.698-14.484-54.544-19.452l-20.804-5.423c-1.964-0.504-6.255-1.096-7.894-2.212-0.962-0.655-1.39-2.521-1.782-3.564l-5.575-17.001z" fill="#01FEFB"/> <defs> <linearGradient id="d" x1="517.31" x2="497.63" y1="534.84" y2="480.54" gradientUnits="userSpaceOnUse"> <stop stop-color="#00B4A3" offset="0"/> <stop stop-color="#00D9C0" offset="1"/> </linearGradient> </defs> <path transform="scale(2.9441)" d="m510.82 542.86c-8.504-8.34-17.209-15.716-26.823-22.742 11.373-12.934 17.108-27.581 21.312-44.013l7.211 3.555c1.231 0.284 5.014-2.774 6.201-3.557 2.888 16.186 10.806 31.105 21.179 43.675l-13.5 10.854c-1.566 0.391-2.41 0.502-3.597 1.689l-2.114 2.106c-1.555-0.734-3.671-1.424-4.908-2.597l-0.139-1.801-0.888 0.434c-0.707 3.169-3.07 9.575-2.303 12.525-0.676 0.896-0.256 0.607-1.199 0.949l-0.432-1.077z" fill="url(#d)"/> <path transform="scale(2.9441)" d="m510.82 542.86-2.914-17.107c-1.606-12.248 0.369-22.925 4.526-34.402 2.366 13.231 3.973 25.673 2.322 39.112-0.707 3.169-3.07 9.575-2.303 12.525-0.676 0.896-0.256 0.607-1.199 0.949l-0.432-1.077z" fill="#01FEFB"/> <path transform="scale(2.9441)" d="m423.42 659.9c2.478 2.971 3.584 7.501 4.905 11.093l7.862 22.013 25.255 70.668 10.997 29.081-13.195-13.774c-3.098-3.102-6.69-6.168-9.184-9.762-2.477-3.57-3.966-8.195-5.595-12.221-4.622-11.427-8.375-24.036-14.12-34.929l6.851 39.743-8.411-7.782c-1.669-1.545-3.71-3.117-4.95-5.014 0.854-3.36 0.439-7.884 0.391-11.377l-0.343-20.905-0.463-56.834z" fill="#5A7592"/> <path transform="scale(2.9441)" d="m275.88 334.75 7.136 20.394c-1.523 2.17-5.175 4.214-7.385 5.868l-15.833 12.159-14.926 13.104 1e-3 31.262-13.357 0.337-7.951 0.132 0.027-39.941 52.288-43.315z" fill="#01FEFB"/> <path transform="scale(2.9441)" d="m745.34 333.39 56.996 46.76-2.364 36.873-8.221-0.027-13.422-0.027c0.454-9.289 3.555-18.978 5.045-28.218-5.62-6.556-14.173-11.826-21-17.124-7.563-5.869-15.068-12.304-23.01-17.629l-0.541-0.357 6.517-20.251z" fill="#01FEFB"/> <path transform="scale(2.9441)" d="m601.7 748.16-10.288 8.649 1.016-36.522c-1.138 5.806-2.89 11.537-4.583 17.199-1.461 4.888-2.721 10.131-4.86 14.765-7.188 15.564-22.414 27.773-35.763 38.066l35.59-81.177 9.076-24.551c2.46-6.981 5.115-14.864 8.826-21.274l0.791 0.237 0.254-0.051 0.22 0.797c0.469 1.616 0.066 0.355 0.57 1.544 0.379 0.892 0.139 2.407 0.537 3.069l-0.029 0.571c-0.24 4.213-1.118 8.326-1.329 12.552l-0.409 36.847-0.177 18.62c-9e-3 3.455-0.288 7.311 0.558 10.659z" fill="#5A7592"/> <path transform="scale(2.9441)" d="m399.83 426.22c4.809-2.653 9.078-1.767 14.142-0.493-0.227 0.873-1.95 1.795-2.686 2.353-7.006 5.318-11.42 10.864-11.336 20.097l-1e-3 0.953 5e-3 0.571c2.166 10.239 7.216 17.694 16.026 23.405 8.767 5.684 19.572 8.219 29.915 5.992 4.666-1.004 8.929-3.258 12.864-5.896 0.127-0.32 0.025-0.145 0.417-0.478 2.602-2.211 5.167-4.641 7.386-7.233 1.611-1.882 3.149-4.418 5.19-5.822 1.197 2.41 0.054 6.134-0.779 8.584-3.854 11.335-11.307 19.769-21.968 25.099-10.206 5.101-22.542 5.196-33.253 1.597-10.179-3.42-21.653-11.683-26.528-21.382 0.339-2.428-2.016-6.66-2.51-9.191-0.806-4.125-0.577-9.331 0.13-13.443 1.127-6.546 3.631-12.735 7.669-18.029 1.628-2.135 4.671-4.16 5.317-6.684z" fill="#7490AE"/> <path transform="scale(2.9441)" d="m458.76 473.2c-0.11 1.068 0.063 0.621-0.658 1.609-4.867 6.676-14.373 10.872-22.349 11.988-9.337 1.305-17.951-0.035-25.535-5.912-7.286-5.647-11.44-13.74-12.647-22.786-0.507-3.807-0.853-9.232 1.595-12.424l0.789 4.024c2.166 10.239 7.216 17.694 16.026 23.405 8.767 5.684 19.572 8.219 29.915 5.992 4.666-1.004 8.929-3.258 12.864-5.896z" fill="#FEFEFE"/> <path transform="scale(2.9441)" d="m559.76 468.73 2.599 2.422c7.639 6.468 19.561 11.095 29.671 10.028l2.519-0.286c9.505-1.196 18.961-6.974 24.642-14.663 7.465-10.105 6.828-23.204 0.024-33.462-1.175-1.771-3.938-4.228-4.255-6.268l1.29-1.06c1.293-0.669 3.667 0.629 4.974 1.107 7.603 2.897 13.67 7.691 17.105 15.214 3.579 7.838 3.779 16.92 0.767 24.963-4.464 11.918-15.234 22.731-26.76 27.942-10.505 4.75-23.728 5.515-34.542 1.344-9.782-3.773-18.363-12.184-22.633-21.729-2.271-5.078-2.754-9.704-2.956-15.212 2.126 2.664 6.327 6.648 7.555 9.66z" fill="#7490AE"/> <path transform="scale(2.9441)" d="m559.76 468.73 2.599 2.422c7.639 6.468 19.561 11.095 29.671 10.028l2.519-0.286c9.505-1.196 18.961-6.974 24.642-14.663 7.465-10.105 6.828-23.204 0.024-33.462-1.175-1.771-3.938-4.228-4.255-6.268l1.29-1.06c1.293-0.669 3.667 0.629 4.974 1.107l0.404 0.94c0.406 0.923 0.879 1.739 1.401 2.599 5.839 9.6 8.754 21.506 6.039 32.591-2.528 10.324-8.842 18.922-18.006 24.295-7.568 4.438-17.084 5.208-25.496 3.014-9.601-2.504-20.117-10.083-25.07-18.683-0.502-0.872-0.884-1.542-0.736-2.574z" fill="#FEFEFE"/> <path transform="scale(2.9441)" d="m397.18 388.63 115.5 65.368 136.12-75.363 2.039 6.696c-2.305 2.595-7.026 4.73-10.128 6.516l-29.375 15.98-34.136 18.64-63.968 36.148c-3.032-1.147-5.885-3.079-8.73-4.649l-15.813-8.77-55.717-31.319c-4.307-2.447-37.405-19.916-38.12-21.368 1.2-2.443 1.73-5.233 2.324-7.879z" fill="#5A7592"/> <path transform="scale(2.9441)" d="m152.62 472.68 89.323 1.122 19.492 29.17-84.707-1.457c-4.187-3.994-7.683-8.797-11.266-13.33l-12.842-15.505z" fill="#01FEFB"/> <path transform="scale(2.9441)" d="m168.27 483.02 72.515 0.444 11.257 15.234-71.638-1.179c-1.532-1.073-2.755-2.79-3.967-4.214l-8.167-10.285z" fill="#008F83"/> <path transform="scale(2.9441)" d="m708.59 231.07c3.625 4.667 6.403 10.79 8.65 16.262 8.828 21.493 11.808 46.857 8.85 69.889-3.018 23.505-12.087 45.478-26.245 64.452-2.656 3.559-6.088 6.764-8.595 10.32-0.395 0.559-0.567 0.751-0.329 1.361-1.878 0.454-4.437 0.174-6.409 0.184l-12.23 0.062c0.015-1.57-0.433-5.208 0.061-6.529 0.168-0.447 1.573-1.437 1.988-1.801l6.519-5.909c19.294-17.855 33.844-38.737 36.952-65.363-1.352 1.045-2.772 8.177-3.532 10.293-1.793 4.995-3.868 9.834-6.487 14.457-8.716 15.384-20.348 27.485-34.192 38.33l0.12-9.469c0.011-0.883-0.237-3.024 0.048-3.793 0.428-1.16 2.272-2.29 3.199-3.071l7.292-6.773c27.791-28.356 34.172-59.71 29.28-98.214-0.565-4.447-1.576-8.851-2.727-13.18-0.969-3.646-2.189-7.221-2.214-11.027l1e-3 -0.481z" fill="#01736E"/> <path transform="scale(2.9441)" d="m671.45 412.06c0.075-4.067 0.23-7.959 0.927-11.972 1.996-0.614 4.393-0.447 6.471-0.478 6.058-0.091 11.52 0.073 16.988 2.996 8.307 4.441 13.61 13.64 16.166 22.435 5.425 18.664 6.924 64.624-2.392 81.512-3.06 5.546-7.618 9.926-13.825 11.667-8.528 2.392-19.186 1.278-28.036 1.263l-0.686-0.738 0.586-3.147c1.606-0.883 4.266-0.44 6.111-0.427l12.922-0.135 2.567-1.498c1.445-0.824 2.722-1.531 3.859-2.783 1.319-1.452 2.133-3.16 2.409-5.105 0.353-2.481 0.123-5.272 0.12-7.787l-0.04-15.397-0.53-54.689c-1.75-2.804-3.349-3.909-6.229-5.442-3.932-0.916-15.645 0.012-17.649-1.461l0.047-3.877 0.214-4.937z" fill="#FEFEFE"/> <defs> <linearGradient id="c" x1="669.28" x2="705.85" y1="460.45" y2="462.54" gradientUnits="userSpaceOnUse"> <stop stop-color="#536281" offset="0"/> <stop stop-color="#6C8CA8" offset="1"/> </linearGradient> </defs> <path transform="scale(2.9441)" d="m671.45 412.06c7.887-0.024 19.586-1.595 25.585 4.64 3.47 3.605 4.505 8.367 5.599 13.053 4.396 18.824 3.651 40.525 2.761 59.768-0.339 7.337-0.85 15.852-6.582 21.184-3.526 3.281-7.355 4.457-12.131 4.331l2.567-1.498c1.445-0.824 2.722-1.531 3.859-2.783 1.319-1.452 2.133-3.16 2.409-5.105 0.353-2.481 0.123-5.272 0.12-7.787l-0.04-15.397-0.53-54.689c-1.75-2.804-3.349-3.909-6.229-5.442-3.932-0.916-15.645 0.012-17.649-1.461l0.047-3.877 0.214-4.937z" fill="url(#c)"/> <path transform="scale(2.9441)" d="m671.24 417c6.417-0.02 17.934-1.573 22.656 3.748 0.399 0.45 0.588 0.951 0.808 1.5l-0.451 0.856c-2.229-0.887-3.04-1.619-5.411-0.766-3.932-0.916-15.645 0.012-17.649-1.461l0.047-3.877z" fill="#FEFEFE"/> <path transform="scale(2.9441)" d="m850.24 472.76 19.367-0.012-24.982 30.342-67.37 0.041-18.272 0.165 20.85-30.288 70.407-0.248z" fill="#01FEFB"/> <path transform="scale(2.9441)" d="m782.35 483.07 72.818 0.012-13.074 15.656c-1.632 1.096-3.363 0.73-5.296 0.729l-12.914-3e-3 -52.5 0.042c-0.109-0.908 2.47-3.935 3.154-4.923l7.812-11.513z" fill="#008F83"/> <path transform="scale(2.9441)" d="m594.98 583.62 0.966 0.218c12.643-9.258 24.744-19.974 36.333-30.53 5.44-4.955 11.042-11.244 17.02-15.442-3.231 12.783-7.477 25.728-12.446 37.951-1.243 3.057-2.378 6.64-4.01 9.488-1.341 2.338-3.724 4.37-5.604 6.281l-10.171 10.391-49.174 49.981-8.345 8.438c-1.368 1.384-2.839 3.218-4.459 4.293l-1.148 0.595c1.716-5.348 4.323-10.656 6.594-15.783l17.869-36.528 9.242-17.894c2.189-4.07 4.134-8.066 7.333-11.459z" fill="#5A7592"/> <defs> <linearGradient id="b" x1="433.33" x2="442.79" y1="460.27" y2="532.45" gradientUnits="userSpaceOnUse"> <stop stop-color="#002128" offset="0"/> <stop stop-color="#01CFB5" offset="1"/> </linearGradient> </defs> <path transform="scale(2.9441)" d="m392.12 512.41-1.152-1.031c-12.43-12.327-20.537-25.658-20.512-43.707 6.466 12.432 12.882 22.265 24.829 29.979 11.135 7.19 24.386 9.982 37.492 10.028 4.463 0.016 8.935-0.032 13.297-1.081 13.803-3.319 27.288-11.179 37.917-20.476 3.289-2.876 6.332-6.017 9.291-9.227 1.07-1.161 2.989-3.908 4.227-4.643 0.363-0.215 0.825-0.177 1.237-0.266l1 1.165c-0.386 7.244-3.663 16.015-7.402 22.24-4.789 11.725-14.069 20.919-23.508 28.997-2.19 1.874-4.535 4.292-6.953 5.823-0.429-0.302-0.789-0.74-1.286-0.905-0.93-0.309-3.515 0.086-4.56 0.121l-13.374 0.406c-5.844 0.134-11.758 0.152-17.56-0.655-3.145-0.437-6.272-0.906-9.357-1.676-1.802-0.45-5.006-1.842-6.75-1.548-0.505 0.085-0.915 0.46-1.373 0.689l-15.503-14.233z" fill="url(#b)"/> <path transform="scale(2.9441)" d="m371.07 533.44c4.077 1.329 7.827 5.75 11.034 8.566l16.179 14.075 17.562 14.584 7.541 6.766c0.806 0.713 1.9 2.004 2.928 2.308 10.392 16.491 20.08 33.501 28.148 51.26l15.598 37.61c-1.286-0.823-2.22-1.521-3.187-2.708 0.159-2.336-2.533-4.368-4.036-5.909l-39.841-41.05-19.017-19.77c-4.39-4.647-9.241-9.207-12.541-14.722-3.806-6.36-6.442-13.515-9.143-20.392l-11.225-30.618z" fill="#008F83"/> <path transform="scale(2.9441)" d="m354.94 516.58 1.279 5.341-22.263-5.272c-4.431-1.076-9.566-1.857-13.546-4.188-4.085-2.392-7.084-7.63-8.214-12.176-1.148-4.623-0.623-9.995-0.594-14.74l0.134-22.841 0.118-24.744c0.022-4.801-0.198-9.804 0.261-14.571 0.267-2.775 1.045-5.442 2.524-7.824 5.639-9.085 19.954-14.964 29.797-17.571 0.621-0.164 4.849-1.329 5.188-1.172 0.048 0.022 0.895 1.592 1.005 1.785 1.143 2.002 2.055 3.805 4.122 4.994l0.993-0.353c1.605-3.804 0.673-10.264 1.287-14.531 1.709-11.864 4.826-23.687 9.539-34.711 7.673-17.945 19.434-33.445 37.983-40.861-5.938 8.508-12.502 16.4-17.798 25.361-8.583 14.522-13.251 29.868-19.172 45.504l-9.169 22.747-32.425 13.937-0.49 0.172-0.562 80.937c5.55 3.554 27.942 9.836 29.913 14.36l0.09 0.417z" fill="#FEFEFE"/> <path transform="scale(2.9441)" d="m354.94 516.58c-2.083-0.055-3.579-0.867-5.553-1.334-7.764-1.839-16.119-3-23.341-6.575-2.843-1.407-5.667-3.711-6.65-6.864-0.714-2.292-0.413-5.123-0.416-7.502l-7e-3 -15.754 0.116-49.046c0.077-1.504 0.307-3.458 1.146-4.755 1.26-1.95 3.03-3.504 5.264-3.884l-0.562 80.937c5.55 3.554 27.942 9.836 29.913 14.36l0.09 0.417z" fill="#B3D3DC"/> <defs> <linearGradient id="a" x1="590.75" x2="578.35" y1="461.68" y2="536.47" gradientUnits="userSpaceOnUse"> <stop stop-color="#00272F" offset="0"/> <stop stop-color="#00BFA6" offset="1"/> </linearGradient> </defs> <path transform="scale(2.9441)" d="m540.12 509.11-5.637-8.108c-4.089-6.858-7.084-14-9.024-21.75-0.519-2.074-1.194-4.02-0.845-6.178l0.885-0.505c4.396 3.784 8.056 8.496 12.437 12.394 17.4 15.482 37.622 25.314 61.291 23.524l6.022-0.827c18.608-3.698 33.463-13.681 44.03-29.408l4.587-7.755c-0.956 6.534-1.86 12.823-4.296 19.008-2.582 6.556-6.94 12.389-11.402 17.777-6.113 7.383-13.573 15.012-21.291 20.773l-0.528 0.389-10.939 9.103-0.479-1.011c-1.777-0.963-2.37-0.765-4.342-0.642l-3.759-0.142-1.081 0.033c-3.701-0.395-7.472-0.191-11.14-0.634l-10.61-1.254c-2.218-0.139-2.718-0.175-4.366 1.283-10.385-7.696-21.513-15.844-29.513-26.07z" fill="url(#a)"/> <defs> <linearGradient id="j" x1="593.78" x2="592.96" y1="522.34" y2="536.82" gradientUnits="userSpaceOnUse"> <stop stop-color="#00A491" offset="0"/> <stop stop-color="#01EFD4" offset="1"/> </linearGradient> </defs> <path transform="scale(2.9441)" d="m592.31 524.3c1.181-0.333 2.49-0.841 3.689-1.04 1.831-0.304 6.822 0.666 8-0.5l1.616 0.138-0.186 0.55-1.68 0.812 1.644 0.075-0.084 1.123c1.976 0.177 3.593 0.339 5.565-0.035 2.423-0.459 4.32-0.407 6.378 0.957l-0.5 0.74-0.403 1.327-10.939 9.103-0.479-1.011c-1.777-0.963-2.37-0.765-4.342-0.642-0.819-0.461-1.572-0.985-2.518-1.12l-0.447-0.019-0.875-1.498c-0.922 0.027-1.878 0.148-2.75-0.181-0.774-0.292-1.472-0.276-2.293-0.305l-0.457-0.014c-0.813-0.813-1.88-0.5-3-0.5-0.813-0.813-1.88-0.5-3-0.5-0.813-0.813-1.88-0.5-3-0.5-0.792-0.792-1.665-0.5-2.75-0.5-1.066-0.711-1.756-0.5-3-0.5-1.065-0.71-1.503-0.5-2.75-0.5-0.861-0.861-2.42-0.502-3.625-0.502l0.125-0.998 1.375-0.194c1.661-0.341 3.563-0.127 5.265 0.079 4.213 0.508 8.5 0.35 12.727 0.419l21.383-1.309-1.5-0.25c-1.266-0.46-1.543-0.972-2.997-0.875l-0.128 0.75-0.654-0.795-4.021-0.284c-1.066-0.59-1.462-0.535-2.7-0.541l-0.75-0.5c-2.071 0.061-3.903-0.079-5.939-0.46z" fill="url(#j)"/> <path transform="scale(2.9441)" d="m513.81 138-0.131 123.6c-15.254 0.047-32.871 2.928-47.145 8.465l5.948-17.813 15.314-44.497 12.282-35.562 7.958-19.315c2.102-4.783 4.703-9.734 5.774-14.877z" fill="#01FEFB"/> <path transform="scale(2.9441)" d="m116.05 428.07 95.637 1.559c3.754 3.804 6.51 9.616 9.529 14.121 4.55 6.789 9.383 13.49 14.629 19.757l-90.825-0.921-28.97-34.516z" fill="#01FEFB"/> <path transform="scale(2.9441)" d="m132.52 439.69 78.581 0.811c5e-3 1e-3 0.904 0.158 1.021 0.261 1.603 1.421 3.265 4.493 4.588 6.291l9.258 11.803-77.718-0.236-15.73-18.93z" fill="#009B8C"/> <path transform="scale(2.9441)" d="m818.27 428.75 88.537-0.168-24.118 29.759c-1.933 2.289-2.514 3.84-5.567 4.093l-89.833-0.128 23.448-33.552 7.533-4e-3z" fill="#01FEFB"/> <path transform="scale(2.9441)" d="m852.68 440.25 39.567-0.141-14.778 17.719c-1.72 1.423-34.11 0.687-39.065 0.702l-40.115-0.015 13.493-18.031 40.898-0.234z" fill="#009B8C"/> <path transform="scale(2.9441)" d="m513.98 131.46c6.682 12.367 10.736 26.679 15.886 39.746l20.945 54.696c5.933 15.87 12.021 31.826 16.19 48.267-16.949-7.746-34.809-11.479-53.329-12.572l0.131-123.6 0.177-6.538z" fill="#01736E"/> <path transform="scale(2.9441)" d="m318.79 686.46c13.444 17.261 28.474 33.816 43.57 49.64 22.525 23.61 45.748 45.636 71.46 65.789l38.145 27.309c13.333 9.109 26.836 18.453 41.068 26.115l51.724-33.9c17.817-12.775 34.712-26.796 51.304-41.098l46.548-42.664 33.48-36.447c4.367-5.003 8.633-11.773 13.648-16.01l0.387-0.317 3.923 3.61c-12.415 17.765-26.752 33.783-41.795 49.318-29.914 30.889-62.445 57.778-97.248 82.945-20.105 14.539-40.603 28.796-62.544 40.469-12.024-5.739-23.392-13.478-34.571-20.713l-29.875-19.966c-36.828-26.633-70.472-56.88-102.03-89.518l-24.585-26.989c-3.173-3.657-6.675-7.177-9.613-11.018l7.008-6.555z" fill="#01FEFB"/> <path transform="scale(2.9441)" d="m658.75 333.8-6.208-8.105c3.568-3.531 7.286-7.033 10.404-10.975 17.775-22.468 29.415-54.325 29.565-83.056 0.039-7.583 0.136-15.151-0.533-22.711l-1.106-9.983c-0.277-1.878-0.83-3.969-0.704-5.858 11.201 9.985 23.165 23.244 30.916 36.036 10.159 16.767 16.26 36.842 17.339 56.413 1.476 26.758-6.423 55.299-18.477 78.992-4.144 8.144-9.21 16.898-15.395 23.695-1.779 1.956-4.264 5.286-6.561 6.508-2.358-0.647-4.603-1.362-7.066-1.401-0.238-0.61-0.066-0.802 0.329-1.361 2.507-3.556 5.939-6.761 8.595-10.32 14.158-18.974 23.227-40.947 26.245-64.452 2.958-23.032-0.022-48.396-8.85-69.889-2.247-5.472-5.025-11.595-8.65-16.262l-1.925-2.822h-0.499c0.399 4.574 0.963 9.186 0.682 13.78-2.01 14.232-4.962 28.159-10.367 41.528-7.866 19.454-21.328 37.164-37.734 50.243z" fill="#01FEFB"/> <path transform="scale(2.9441)" d="m391.96 375.29-12.742-6.534c3.63-8.327 6.97-16.873 11.439-24.792 15.658-27.741 40.63-49.818 70.268-61.506 36.675-14.462 74.623-12.888 110.57 2.793 6.25 2.726 12.696 5.725 18.445 9.412 21.606 13.858 40.798 36.732 50.082 60.588l5.701 16.957-13.498 2.77c-3.103-10.331-6.795-20.106-12.102-29.543-16.836-29.94-45.589-51.205-78.571-60.296-9.508-2.621-19.42-4.317-29.299-4.457-19.847-0.281-40.522 6.403-57.645 16.155-25.014 14.246-43.258 35.456-55.557 61.335-2.633 5.54-5.454 11.196-7.093 17.118z" fill="#FEFEFE"/> <path transform="scale(2.9441)" d="m306.53 281.87c-0.04-5.961-0.298-12.07 0.234-18.01 0.553-6.176 1.875-12.259 3.153-18.317-2.485 5.041-4.933 10.177-6.667 15.533-6.15 18.995-6.309 38.855-3.438 58.42 1.186 8.083 2.739 16.172 5.352 23.93 5.011 14.874 13.397 27.723 25.136 38.133 2.032 1.802 4.079 3.586 6.254 5.214 1.269 0.95 2.952 1.854 3.988 3.041-4.001 1.102-8.169 2.506-12.291 3.039-23.551-16.759-36.342-43.328-41.039-71.308-6.413-38.198 3.212-74.027 25.841-105.32 5.069-7.01 11.317-13.375 17.413-19.496-1.787 11.225-1.399 22.55-0.334 33.832 2.327 24.654 8.912 50.604 23.689 70.919 5.803 7.977 12.933 14.984 19.86 21.967l-3.369 4.261c-3.491-2.27-6.664-5.149-9.88-7.801-18.198-14.999-31.149-33.492-36.356-56.695-0.805-3.587-1.484-7.165-1.917-10.817-0.305-2.572-0.082-6.43-1.249-8.718l-0.416-0.759 1.215-12.735c-7.487 15.4-10.356 32.189-10.772 49.178-0.304 1.895-0.178 5.697-1.185 7.138l0.5 0.75c-3e-3 1.285 0.229 2.153-0.5 3.25l-1.52 0.5c-0.747-3.046-0.823-6.092-1.702-9.126z" fill="#01FEFB"/> <path transform="scale(2.9441)" d="m367.91 526.76c-0.929-1.121-1.533-6.245-1.924-7.968 9.276 9.238 20.892 16.99 31.422 24.78l39.272 29.732 42.156-37.007 33.388 24.511c3.02-0.42 29.605-21.717 33.905-25.118 5.186 6.423 12.088 11.784 18.333 17.138l25.755 21.37 68.989-56.467-2.007 6.464c-3.302 1.578-6.52 10.162-7.907 13.675-5.978 4.198-11.58 10.487-17.02 15.442-11.589 10.556-23.69 21.272-36.333 30.53l-0.966-0.218-0.743-1.07c-2.173 1.333-3.92 4.589-5.593 6.574l-31.851-24.455c-3.303-2.381-6.617-5.257-10.193-7.182l-33.622 16.014 0.331 0.841h-1.734c-0.279-0.398-0.468-0.877-0.836-1.194-2.55-2.2-8.151-3.495-11.362-4.993l-13.181-6.668c-2.692-1.426-5.724-3.346-8.722-3.944l-43.218 30.983c-2.24-2.343-4.889-7.71-7.942-8.785-1.028-0.304-2.122-1.595-2.928-2.308l-7.541-6.766-17.562-14.584-16.179-14.075c-3.207-2.816-6.957-7.237-11.034-8.566-0.905-2.253-1.669-4.748-3.153-6.686z" fill="#01736E"/> <path transform="scale(2.9441)" d="m311.51 519.44c1.268 0.452 2.18 0.912 3.306 1.651 4.206 2.764 10.911 3.491 15.804 4.783l25.627 6.747c0.741 0.163 0.464 0.085 1.214 0.499l6.396 30.069 9.523 29.238-9.908 13.365c-20.458 25.251-43.51 48.563-65.352 72.594l-29.818 33.287c-4.66 4.859-9.562 10.105-14.939 14.17 0.089-1.563-0.143-4.613 0.504-5.943 3.487-4.199 6.141-9.811 8.955-14.538l20.175-33.859 40.023-62.274 20.778-30.609-25.71-45.786-0.356-0.872c-2.545-3.644-4.579-8.398-6.222-12.522z" fill="#01736E"/> <path transform="scale(2.9441)" d="m311.51 519.44c1.268 0.452 2.18 0.912 3.306 1.651 4.206 2.764 10.911 3.491 15.804 4.783l25.627 6.747c0.741 0.163 0.464 0.085 1.214 0.499l6.396 30.069-13.603-3.167c-2.6-0.61-5.789-0.965-8.212-2.08-2.583-1.187-4.69-4.425-6.226-6.689-2.806-4.136-5.719-8.288-7.419-13-0.949-2.632-4.548-12.258-6.921-13.543-2.173-1.177-5-1.548-7.333-2.734l-0.527-0.274c0.98 3.02 3.963 6.722 4.153 9.645l-0.037 0.615c-2.545-3.644-4.579-8.398-6.222-12.522z" fill="#02595B"/> <path transform="scale(2.9441)" d="m434.12 669.68c0.678 0.202 1.853 0.378 2.429 0.724 2.275 1.368 4.403 5.155 6.258 7.137l19.444 21.014 49.615 59.48 25.505-33.16c11.602-13.687 24.165-26.095 36.763-38.808 4.016-4.053 11.182-13.447 16.641-14.705l-34.989 66.69c-1.242 2.562-5.676 9.489-5.392 12.027-1.486 4.209-3.916 8.068-5.952 12.027l-10.678 21.198c-5.404 10.642-9.996 21.678-16.009 32.012-1.473 2.531-2.836 5.574-4.75 7.78-3.03-3.423-5.253-7.295-7.787-11.08-7.891-11.788-14.339-23.909-21.197-36.266-1.369-2.466-4.939-7.142-5.251-9.781l0.462-0.958-45.112-95.331z" fill="#001E35"/> <path transform="scale(2.9441)" d="m253.86 719.9 50.53-215.05 7.113 14.59c1.643 4.124 3.677 8.878 6.222 12.522l0.356 0.872 25.71 45.786-20.778 30.609-40.023 62.274-20.175 33.859c-2.814 4.727-5.468 10.339-8.955 14.538z" fill="#01FEFB"/> <defs> <linearGradient id="i" x1="328.2" x2="713.08" y1="774.39" y2="738.47" gradientUnits="userSpaceOnUse"> <stop stop-color="#00AA9B" offset="0"/> <stop stop-color="#00D7C4" offset="1"/> </linearGradient> </defs> <path transform="scale(2.9441)" d="m318.79 686.46 9.588-10.056 38.155 41.168c28.246 29.084 58.283 56.58 91.113 80.441 17.855 12.978 36.48 24.294 55.3 35.757l39.694-26.149c22.648-16.117 44.236-33.832 65.246-52.003 12.928-11.182 25.814-22.463 37.807-34.657 15.051-15.302 28.999-31.708 42.572-48.317l11.859 12.233-0.387 0.317c-5.015 4.237-9.281 11.007-13.648 16.01l-33.48 36.447-46.548 42.664c-16.592 14.302-33.487 28.323-51.304 41.098l-51.724 33.9c-14.232-7.662-27.735-17.006-41.068-26.115l-38.145-27.309c-25.712-20.153-48.935-42.179-71.46-65.789-15.096-15.824-30.126-32.379-43.57-49.64z" fill="url(#i)"/> <path transform="scale(2.9441)" d="m771.19 722.36c0.794 0.62 1.714 5.536 2.007 6.703l-123.69-134.85c6.496-14.818 9.587-30.864 12.45-46.714l2.197-12.599c0.379-2.141 0.569-4.514 1.415-6.518l22.439-0.371c9.461-0.278 18.106-2.887 25.361-9.156 2.54-2.194 4.69-4.992 7.003-7.438l-3.977 14.434 11.102 49.648 25.914 96.009 6.737 21.516c0.796 2.241 1.504 5.352 2.951 7.225 0.887-0.193 1.649-0.408 2.479-0.777l5.616 22.885z" fill="#01736E"/> <path transform="scale(2.9441)" d="m771.19 722.36-0.735 0.226-86.725-141.01c6.518-8.178 13.762-16.172 19.411-24.981 6.206-9.677 10.054-19.776 13.25-30.738l11.102 49.648 25.914 96.009 6.737 21.516c0.796 2.241 1.504 5.352 2.951 7.225 0.887-0.193 1.649-0.408 2.479-0.777l5.616 22.885z" fill="#01FEFB"/> <path transform="scale(2.9441)" d="m513.31 574.34-0.331-0.841 33.622-16.014c3.576 1.925 6.89 4.801 10.193 7.182l31.851 24.455c-8.74 10.893-16.046 23.873-23.061 35.943l-25.253 45.767c0.121-12.03 2.093-23.577 3.711-35.453-2.87 5.396-4.72 11.813-7.096 17.5l-18.046 45.36-4.939 15.851c-0.748 2.52-1.21 5.233-2.375 7.594l-1.631-70.413-2.486 26.027c-0.449 7.681-0.194 15.874-1.788 23.386l-20.965-63.482c-0.668 3.071-0.217 7.106-0.269 10.297l-0.569 23.259-17.123-43.93c0.048 5.155 0.241 9.923 1.274 15.003-10.019-18.428-20.824-36.759-33.772-53.307l43.218-30.983c2.998 0.598 6.03 2.518 8.722 3.944l13.181 6.668c3.211 1.498 8.812 2.793 11.362 4.993 0.368 0.317 0.557 0.796 0.836 1.194h1.734z" fill="#008F83"/> <path transform="scale(2.9441)" d="m508.51 599.21c6.015-0.384 11.642 0.496 17.6 1.067 5.915 0.566 11.834 0.706 17.772 0.747-4.99 2-9.464 5.201-14.001 8.054l-14.139 8.177-3.804 1.706-30.482-17.769 27.054-1.982z"/> <path transform="scale(2.9441)" d="m511.57 574.34h1.734c16.195 2.915 33.733 8.975 45.789 20.659l-0.345 0.478-3.006-0.748-0.485 0.441c-4.678-0.164-9.321-1.122-13.934-1.872l-18.92-3.134c-3.306-0.593-6.927-1.714-10.274-1.748-2.887-0.03-5.71 0.974-8.532 1.487l-23.452 3.954c-3.618 0.519-7.661 1.501-11.291 0.843l-7.321 2.336c14.755-12.26 31.152-19.655 50.037-22.696z"/> <path transform="scale(2.9441)" d="m468.86 594.7c10.426-3.973 20.847-7.609 31.683-10.314 3.584-0.894 7.667-2.189 11.365-2.08 4.781 0.141 9.762 1.506 14.373 2.734 10.08 2.684 19.614 6.356 29.467 9.689l-0.485 0.441c-4.678-0.164-9.321-1.122-13.934-1.872l-18.92-3.134c-3.306-0.593-6.927-1.714-10.274-1.748-2.887-0.03-5.71 0.974-8.532 1.487l-23.452 3.954c-3.618 0.519-7.661 1.501-11.291 0.843z" fill="#FEFEFE"/> <path transform="scale(2.9441)" d="m391.96 375.29c1.639-5.922 4.46-11.578 7.093-17.118 12.299-25.879 30.543-47.089 55.557-61.335 17.123-9.752 37.798-16.436 57.645-16.155 9.879 0.14 19.791 1.836 29.299 4.457 32.982 9.091 61.735 30.356 78.571 60.296 5.307 9.437 8.999 19.212 12.102 29.543-3.811 0.982-7.244 3.369-10.662 5.277l-18.5 10.418-53.222 29.415-37.264 20.838c-2.375-0.588-5.101-2.82-7.222-4.077l-14.394-8.223-55.239-30.558c-14.301-7.912-28.774-16.263-43.764-22.778z" fill="#5A7592"/> <path transform="scale(2.9441)" d="m508.34 297.72c17.727-0.734 35.869 3.808 49.996 14.924 11.415 8.981 18.923 22.496 20.62 36.918 1.65 14.022-2.789 28.776-11.646 39.727-11.435 14.136-30.674 24.516-48.692 26.526-12.695 0.615-22.809-2.461-34.177-7.791-5.788-2.715-11.195-5.637-16.179-9.684-11.014-8.945-19.436-22.211-20.757-36.528-1.445-15.654 2.504-30.325 12.785-42.415 11.987-14.095 30.086-20.329 48.05-21.677z"/> <path transform="scale(2.9441)" d="m513.39 309.14c2.642 4.246 4.289 9.119 6.064 13.771l7.388 19.713 42.592 0.388-34.935 23.265 12.659 37.784c-11.857-5.858-21.484-16.389-32.405-23.839l-0.506-0.341-0.473-0.162c-7e-3 -1e-3 -1.056-0.063-1.102-0.043-0.974 0.434-2.54 2.232-3.425 2.959l-12.173 9.847-16.162 12.416 12.464-38.419-35.049-23.457 42.434-0.591 12.629-33.291z" fill="#FEFEFE"/> </svg>